<?xml version="1.0" standalone="no"?><!DOCTYPE svg PUBLIC "-//W3C//DTD SVG 1.1//EN" "http://www.w3.org/Graphics/SVG/1.1/DTD/svg11.dtd"><svg t="1605066840628" class="icon" viewBox="0 0 1024 1024" version="1.1" xmlns="http://www.w3.org/2000/svg" p-id="6015" width="32" height="32" xmlns:xlink="http://www.w3.org/1999/xlink"><defs><style type="text/css"></style></defs><path d="M441.344 109.568c66.56 71.68 33.792 182.272 89.088 304.128 69.632 153.6 214.016 251.904 326.656 308.224-32.768 61.44-399.36 266.24-399.36 266.24L245.76 627.712l-21.504-161.792s-24.576-239.616-1.024-307.2 184.32-84.992 218.112-49.152z" fill="#c5c5c5" p-id="6016"></path><path d="M340.992 790.528l116.736 197.632s366.592-204.8 399.36-266.24c-36.864-18.432-75.776-40.96-115.712-68.608C640 706.56 481.28 754.688 340.992 790.528z" fill="#c5c5c5" p-id="6017"></path><path d="M481.28 1010.688c-6.144 0-14.336-1.024-22.528-5.12-84.992-39.936-257.024-337.92-264.192-602.112 0-9.216-1.024-17.408-1.024-27.648-3.072-118.784-9.216-301.056 153.6-308.224 141.312-6.144 175.104 91.136 207.872 184.32 13.312 36.864 26.624 75.776 47.104 111.616 7.168 12.288 3.072 27.648-9.216 34.816-12.288 7.168-27.648 3.072-34.816-9.216-22.528-39.936-37.888-82.944-50.176-120.832-34.816-101.376-57.344-153.6-157.696-149.504-104.448 5.12-109.568 113.664-104.448 256 0 9.216 1.024 18.432 1.024 27.648 7.168 264.192 183.296 532.48 232.448 556.032 64.512-48.128 347.136-238.592 457.728-312.32-35.84-13.312-89.088-34.816-154.624-69.632-12.288-6.144-17.408-22.528-10.24-34.816s22.528-17.408 34.816-10.24c116.736 61.44 193.536 80.896 194.56 81.92 10.24 2.048 17.408 10.24 19.456 20.48s-3.072 20.48-11.264 25.6c-5.12 3.072-443.392 295.936-504.832 344.064-5.12 3.072-12.288 7.168-23.552 7.168z" fill="#c5c5c5" p-id="6018"></path><path d="M217.088 282.624L34.816 321.536l182.272 58.368z" fill="#c5c5c5" p-id="6019"></path><path d="M217.088 405.504c-3.072 0-5.12 0-8.192-1.024L26.624 346.112C15.36 343.04 8.192 331.776 9.216 320.512c1.024-11.264 9.216-21.504 20.48-23.552l182.272-37.888c7.168-2.048 15.36 0 21.504 5.12 6.144 5.12 9.216 12.288 9.216 19.456v96.256c0 8.192-4.096 16.384-10.24 20.48-4.096 3.072-10.24 5.12-15.36 5.12z m-81.92-78.848l56.32 18.432v-29.696l-56.32 11.264zM675.84 504.832c-5.12 0-9.216-1.024-13.312-4.096-2.048-1.024-9.216-6.144-13.312-9.216l-1.024-1.024c-3.072-2.048-7.168-6.144-14.336-14.336-9.216-10.24-8.192-26.624 2.048-35.84s26.624-8.192 35.84 2.048l9.216 9.216 2.048 2.048c1.024 1.024 4.096 3.072 7.168 5.12 12.288 7.168 15.36 23.552 8.192 34.816-5.12 7.168-13.312 11.264-22.528 11.264z" fill="#c5c5c5" p-id="6020"></path><path d="M132.096 352.256s-13.312 5.12-28.672 34.816c-24.576 49.152-8.192 58.368 11.264 68.608 37.888 20.48 34.816-9.216 41.984-34.816 7.168-26.624 26.624-49.152 26.624-53.248l-51.2-15.36z" fill="#c5c5c5" p-id="6021"></path><path d="M135.168 488.448c-12.288 0-23.552-5.12-32.768-9.216-28.672-15.36-54.272-39.936-21.504-103.424 18.432-35.84 36.864-45.056 41.984-47.104 5.12-2.048 11.264-2.048 16.384-1.024l51.2 15.36c10.24 3.072 18.432 13.312 18.432 24.576 0 9.216-4.096 14.336-9.216 23.552-6.144 9.216-14.336 22.528-18.432 36.864l-3.072 12.288c-3.072 16.384-7.168 35.84-26.624 45.056-5.12 2.048-10.24 3.072-16.384 3.072z m3.072-107.52c-3.072 4.096-7.168 9.216-11.264 18.432-11.264 21.504-10.24 28.672-10.24 28.672 1.024 1.024 7.168 4.096 10.24 6.144 0 0 1.024 0 1.024 1.024 0-2.048 1.024-3.072 1.024-5.12l3.072-15.36c3.072-11.264 8.192-22.528 12.288-31.744l-6.144-2.048z" fill="#c5c5c5" p-id="6022"></path><path d="M361.472 282.624m-80.896 0a80.896 80.896 0 1 0 161.792 0 80.896 80.896 0 1 0-161.792 0Z" fill="#c5c5c5" p-id="6023"></path><path d="M361.472 201.728c-3.072 0-6.144 0-9.216 1.024-5.12 7.168-9.216 15.36-9.216 24.576 0 22.528 18.432 39.936 40.96 39.936 21.504 0 37.888-15.36 40.96-35.84-15.36-18.432-37.888-29.696-63.488-29.696z" fill="#c5c5c5" p-id="6024"></path><path d="M150.184279 268.066258a28.672 34.816 78.579 1 0 68.253193-13.788293 28.672 34.816 78.579 1 0-68.253193 13.788293Z" fill="#c5c5c5" p-id="6025"></path><path d="M182.272 315.392c-27.648 0-51.2-17.408-56.32-41.984-3.072-14.336 1.024-30.72 11.264-43.008 9.216-11.264 22.528-18.432 36.864-21.504 14.336-3.072 29.696-1.024 41.984 6.144 14.336 7.168 23.552 20.48 26.624 34.816 3.072 14.336-1.024 30.72-11.264 43.008-9.216 11.264-22.528 18.432-36.864 21.504-4.096 0-8.192 1.024-12.288 1.024z m-6.144-52.224c1.024 1.024 4.096 2.048 8.192 1.024s6.144-3.072 7.168-4.096c-1.024-1.024-4.096-2.048-8.192-1.024-3.072 0-6.144 2.048-7.168 4.096z m17.408-4.096z" fill="#c5c5c5" p-id="6026"></path></svg>